<svg fill="none" height="24" viewBox="0 0 24 24" width="24" xmlns="http://www.w3.org/2000/svg"><g fill="#292d32"><path d="m16.4904 22.75h-8.98998c-1.72 0-3.00999-.46-3.80999-1.37s-1.11001-2.23-.90001-3.94l.90001-7.5c.26-2.21.82-4.19 4.72-4.19h7.19997c3.89 0 4.45 1.98 4.72 4.19l.9 7.5c.2 1.71-.1 3.04-.9 3.94-.83.91-2.11 1.37-3.84 1.37zm-8.08998-15.5c-2.88 0-3.02 1.13999-3.23 2.86l-.89999 7.5c-.15 1.27.02999 2.2.53999 2.77s1.41.86 2.69.86h8.98998c1.28 0 2.18-.29 2.69-.86s.69-1.5.54-2.77l-.9-7.5c-.21-1.73001-.34-2.86-3.23-2.86z"/><path d="m16 8.75c-.41 0-.75-.34-.75-.75v-3.5c0-1.08-.67-1.75-1.75-1.75h-3c-1.08 0-1.75.67-1.75 1.75v3.5c0 .41-.34.75-.75.75s-.75-.34-.75-.75v-3.5c0-1.91 1.34-3.25 3.25-3.25h3c1.91 0 3.25 1.34 3.25 3.25v3.5c0 .41-.34.75-.75.75z"/><path d="m20.41 17.78h-12.41c-.41 0-.75-.34-.75-.75s.34-.75.75-.75h12.41c.41 0 .75.34.75.75s-.34.75-.75.75z"/></g></svg>